<svg width="30" height="31" viewBox="0 0 30 31" fill="none" xmlns="http://www.w3.org/2000/svg">
<circle cx="15" cy="15.6074" r="14" stroke="url(#paint0_linear)" stroke-width="2"/>
<path d="M15.2023 17.2917C15.1248 18.3627 14.7283 19.2058 14.0128 19.821C13.3019 20.4363 12.3631 20.7439 11.1964 20.7439C9.92037 20.7439 8.91549 20.3155 8.18176 19.4587C7.4526 18.5974 7.08801 17.4171 7.08801 15.9177V15.3093C7.08801 14.3523 7.25663 13.5092 7.59387 12.78C7.93111 12.0509 8.41191 11.4926 9.03625 11.1052C9.66516 10.7133 10.3943 10.5173 11.2238 10.5173C12.3722 10.5173 13.2973 10.825 13.9991 11.4402C14.701 12.0554 15.1066 12.919 15.2159 14.031H13.1652C13.115 13.3884 12.935 12.9236 12.6251 12.6365C12.3198 12.3448 11.8527 12.199 11.2238 12.199C10.5402 12.199 10.0275 12.4451 9.68567 12.9373C9.34843 13.4249 9.17525 14.1837 9.16614 15.2136V15.9656C9.16614 17.0411 9.32792 17.8272 9.65149 18.324C9.97961 18.8207 10.4946 19.0691 11.1964 19.0691C11.8299 19.0691 12.3016 18.9255 12.6115 18.6384C12.9259 18.3468 13.1059 17.8979 13.1515 17.2917H15.2023ZM20.7052 20.6072C20.6141 20.4294 20.548 20.2084 20.507 19.9441C20.0284 20.4773 19.4064 20.7439 18.6407 20.7439C17.9161 20.7439 17.3146 20.5343 16.8361 20.115C16.3621 19.6957 16.1251 19.1671 16.1251 18.5291C16.1251 17.7452 16.4145 17.1436 16.9933 16.7244C17.5766 16.3051 18.4174 16.0932 19.5157 16.0886H20.4249V15.6648C20.4249 15.323 20.3361 15.0496 20.1583 14.8445C19.9851 14.6394 19.7094 14.5369 19.3312 14.5369C18.9985 14.5369 18.7365 14.6166 18.545 14.7761C18.3582 14.9356 18.2648 15.1544 18.2648 15.4324H16.2892C16.2892 15.004 16.4213 14.6075 16.6857 14.2429C16.95 13.8783 17.3237 13.5935 17.8068 13.3884C18.2898 13.1788 18.8322 13.074 19.4337 13.074C20.3452 13.074 21.0675 13.3041 21.6007 13.7644C22.1385 14.2201 22.4073 14.8627 22.4073 15.6921V18.8982C22.4119 19.6 22.5099 20.1309 22.7013 20.491V20.6072H20.7052ZM19.0714 19.2332C19.3631 19.2332 19.632 19.1694 19.8781 19.0417C20.1241 18.9096 20.3064 18.7341 20.4249 18.5154V17.2439H19.6866C18.6977 17.2439 18.1713 17.5857 18.1075 18.2693L18.1007 18.3855C18.1007 18.6316 18.1873 18.8344 18.3605 18.9939C18.5337 19.1534 18.7706 19.2332 19.0714 19.2332Z" fill="white"/>
<defs>
<linearGradient id="paint0_linear" x1="0" y1="0.607422" x2="30" y2="30.6074" gradientUnits="userSpaceOnUse">
<stop stop-color="#FEF521"/>
<stop offset="1" stop-color="#EE712B"/>
</linearGradient>
</defs>
</svg>
