<svg width="30" height="31" viewBox="0 0 30 31" fill="none" xmlns="http://www.w3.org/2000/svg">
<circle cx="15" cy="15.1074" r="14" stroke="url(#paint0_linear)" stroke-width="2"/>
<path d="M8.06836 10.1543L10.625 17.373L13.168 10.1543H15.8613V20.1074H13.8037V17.3867L14.0088 12.6904L11.3223 20.1074H9.91406L7.23438 12.6973L7.43945 17.3867V20.1074H5.38867V10.1543H8.06836ZM17.2354 16.3545C17.2354 15.2197 17.5042 14.306 18.042 13.6133C18.5843 12.9206 19.3135 12.5742 20.2295 12.5742C21.0407 12.5742 21.6719 12.8522 22.123 13.4082L22.2051 12.7109H23.9961V19.8613C23.9961 20.5085 23.848 21.0713 23.5518 21.5498C23.2601 22.0283 22.8477 22.3929 22.3145 22.6436C21.7812 22.8942 21.1569 23.0195 20.4414 23.0195C19.8991 23.0195 19.3704 22.9102 18.8555 22.6914C18.3405 22.4772 17.9508 22.1992 17.6865 21.8574L18.5615 20.6543C19.0537 21.2057 19.6507 21.4814 20.3525 21.4814C20.8766 21.4814 21.2845 21.3402 21.5762 21.0576C21.8678 20.7796 22.0137 20.3831 22.0137 19.8682V19.4717C21.5579 19.9867 20.9587 20.2441 20.2158 20.2441C19.3271 20.2441 18.6071 19.8978 18.0557 19.2051C17.5088 18.5078 17.2354 17.585 17.2354 16.4365V16.3545ZM19.2109 16.498C19.2109 17.168 19.3454 17.6943 19.6143 18.0771C19.8831 18.4554 20.2523 18.6445 20.7217 18.6445C21.3232 18.6445 21.7539 18.4189 22.0137 17.9678V14.8574C21.7493 14.4062 21.3232 14.1807 20.7354 14.1807C20.2614 14.1807 19.8877 14.3743 19.6143 14.7617C19.3454 15.1491 19.2109 15.7279 19.2109 16.498Z" fill="white"/>
<defs>
<linearGradient id="paint0_linear" x1="0" y1="0.107422" x2="30" y2="30.1074" gradientUnits="userSpaceOnUse">
<stop stop-color="#FEF521"/>
<stop offset="1" stop-color="#EE712B"/>
</linearGradient>
</defs>
</svg>
