<svg width="30" height="31" viewBox="0 0 30 31" fill="none" xmlns="http://www.w3.org/2000/svg">
<circle cx="15" cy="15.6074" r="14" stroke="url(#paint0_linear)" stroke-width="2"/>
<path d="M14.5499 17.9961C14.5499 17.6087 14.4132 17.3125 14.1398 17.1074C13.8663 16.8978 13.3741 16.679 12.6632 16.4512C11.9523 16.2188 11.3894 15.9909 10.9747 15.7676C9.84452 15.1569 9.27942 14.3343 9.27942 13.2998C9.27942 12.762 9.42981 12.2835 9.73059 11.8643C10.0359 11.4404 10.4712 11.11 11.0363 10.873C11.6059 10.6361 12.2439 10.5176 12.9503 10.5176C13.6613 10.5176 14.2947 10.6475 14.8507 10.9072C15.4067 11.1624 15.8374 11.5247 16.1427 11.9941C16.4526 12.4635 16.6075 12.9967 16.6075 13.5938H14.5568C14.5568 13.138 14.4132 12.7848 14.1261 12.5342C13.839 12.279 13.4357 12.1514 12.9161 12.1514C12.4148 12.1514 12.0252 12.2585 11.7472 12.4727C11.4692 12.6823 11.3302 12.9603 11.3302 13.3066C11.3302 13.6302 11.492 13.9014 11.8156 14.1201C12.1437 14.3389 12.6245 14.5439 13.2579 14.7354C14.4246 15.0863 15.2745 15.5215 15.8077 16.041C16.3409 16.5605 16.6075 17.2077 16.6075 17.9824C16.6075 18.8438 16.2817 19.5205 15.63 20.0127C14.9783 20.5003 14.101 20.7441 12.9982 20.7441C12.2325 20.7441 11.5353 20.6051 10.9064 20.3271C10.2775 20.0446 9.79667 19.6595 9.46399 19.1719C9.13586 18.6842 8.9718 18.1191 8.9718 17.4766H11.0294C11.0294 18.5749 11.6857 19.124 12.9982 19.124C13.4858 19.124 13.8663 19.026 14.1398 18.8301C14.4132 18.6296 14.5499 18.3516 14.5499 17.9961ZM19.9572 20.6074H17.9747V13.2109H19.9572V20.6074ZM17.8585 11.2969C17.8585 11.0007 17.9565 10.7568 18.1525 10.5654C18.353 10.374 18.6241 10.2783 18.9659 10.2783C19.3032 10.2783 19.5721 10.374 19.7726 10.5654C19.9731 10.7568 20.0734 11.0007 20.0734 11.2969C20.0734 11.5977 19.9708 11.8438 19.7657 12.0352C19.5652 12.2266 19.2986 12.3223 18.9659 12.3223C18.6333 12.3223 18.3644 12.2266 18.1593 12.0352C17.9588 11.8438 17.8585 11.5977 17.8585 11.2969Z" fill="white"/>
<defs>
<linearGradient id="paint0_linear" x1="0" y1="0.607422" x2="30" y2="30.6074" gradientUnits="userSpaceOnUse">
<stop stop-color="#FEF521"/>
<stop offset="1" stop-color="#EE712B"/>
</linearGradient>
</defs>
</svg>
